<mxfile host="drawio-plugin" modified="2022-03-31T03:34:33.701Z" agent="5.0 (Windows NT 6.2; Win64; x64) AppleWebKit/537.36 (KHTML, like Gecko) Chrome/89.0.4389.114 Safari/537.36" etag="5HZzzZQI14eUHKrGsGEd" version="15.5.4" type="embed"><diagram id="cvLiQvczyyv2IEws7kv0" name="main"><mxGraphModel dx="981" dy="335" grid="1" gridSize="10" guides="1" tooltips="1" connect="1" arrows="1" fold="1" page="1" pageScale="1" pageWidth="827" pageHeight="1169" background="#EEEEEE" math="0" shadow="0"><root><mxCell id="0"/><mxCell id="1" parent="0"/><mxCell id="i-i60iLG56CUSzepgEwN-10" style="edgeStyle=orthogonalEdgeStyle;rounded=0;orthogonalLoop=1;jettySize=auto;html=1;entryX=1;entryY=0.5;entryDx=0;entryDy=0;labelBackgroundColor=#EEEEEE;strokeColor=#182E3E;fontColor=#1A1A1A;" parent="1" source="ijWVoz1V8DGi0HDy-ZMH-1" target="i-i60iLG56CUSzepgEwN-9" edge="1"><mxGeometry relative="1" as="geometry"><Array as="points"><mxPoint x="700" y="145"/><mxPoint x="700" y="145"/></Array></mxGeometry></mxCell><mxCell id="ijWVoz1V8DGi0HDy-ZMH-1" value="user" style="swimlane;childLayout=stackLayout;horizontal=1;startSize=30;horizontalStack=0;rounded=1;fontSize=14;fontStyle=0;strokeWidth=2;resizeParent=0;resizeLast=1;shadow=0;dashed=0;align=center;fillColor=#F5AB50;strokeColor=#909090;fontColor=#1A1A1A;" parent="1" vertex="1"><mxGeometry x="720" y="60" width="160" height="270" as="geometry"/></mxCell><mxCell id="ijWVoz1V8DGi0HDy-ZMH-2" value="+ id (PK)&#10;+ email&#10;+ password&#10;+ name&#10;+ dob&#10;+ gender&#10;+ phone&#10;+ id_card_number&#10;+ status&#10;+ role_id (FK)&#10;+ location_id (FK)&#10;+ created_date&#10;+ created_by&#10;+ modified_date&#10;+ modified_by" style="align=left;strokeColor=none;fillColor=none;spacingLeft=4;fontSize=12;verticalAlign=top;resizable=0;rotatable=0;part=1;fontColor=#1A1A1A;" parent="ijWVoz1V8DGi0HDy-ZMH-1" vertex="1"><mxGeometry y="30" width="160" height="240" as="geometry"/></mxCell><mxCell id="ijWVoz1V8DGi0HDy-ZMH-7" value="shop" style="swimlane;childLayout=stackLayout;horizontal=1;startSize=30;horizontalStack=0;rounded=1;fontSize=14;fontStyle=0;strokeWidth=2;resizeParent=0;resizeLast=1;shadow=0;dashed=0;align=center;fillColor=#F5AB50;strokeColor=#909090;fontColor=#1A1A1A;" parent="1" vertex="1"><mxGeometry x="970" y="250" width="160" height="300" as="geometry"/></mxCell><mxCell id="ijWVoz1V8DGi0HDy-ZMH-8" value="+ id (PK)&#10;+ name&#10;+ phone&#10;+ description&#10;+ open_time&#10;+ evaluation_level&#10;+ image&#10;+ min_money&#10;+ max_money&#10;+ user_boss_id (FK)&#10;+ location_id (FK)&#10;+ created_date&#10;+ created_by&#10;+ modified_date&#10;+ moified_by" style="align=left;strokeColor=none;fillColor=none;spacingLeft=4;fontSize=12;verticalAlign=top;resizable=0;rotatable=0;part=1;fontColor=#1A1A1A;" parent="ijWVoz1V8DGi0HDy-ZMH-7" vertex="1"><mxGeometry y="30" width="160" height="270" as="geometry"/></mxCell><mxCell id="ijWVoz1V8DGi0HDy-ZMH-10" value="country" style="swimlane;childLayout=stackLayout;horizontal=1;startSize=30;horizontalStack=0;rounded=1;fontSize=14;fontStyle=0;strokeWidth=2;resizeParent=0;resizeLast=1;shadow=0;dashed=0;align=center;fillColor=#F5AB50;strokeColor=#909090;fontColor=#1A1A1A;" parent="1" vertex="1"><mxGeometry x="80" y="600" width="160" height="160" as="geometry"/></mxCell><mxCell id="ijWVoz1V8DGi0HDy-ZMH-11" value="+ id (PK)&#10;+ name&#10;+ created_date&#10;+ created_by&#10;+ modified_date&#10;+ moified_by" style="align=left;strokeColor=none;fillColor=none;spacingLeft=4;fontSize=12;verticalAlign=top;resizable=0;rotatable=0;part=1;fontColor=#1A1A1A;" parent="ijWVoz1V8DGi0HDy-ZMH-10" vertex="1"><mxGeometry y="30" width="160" height="130" as="geometry"/></mxCell><mxCell id="ijWVoz1V8DGi0HDy-ZMH-12" value="province" style="swimlane;childLayout=stackLayout;horizontal=1;startSize=30;horizontalStack=0;rounded=1;fontSize=14;fontStyle=0;strokeWidth=2;resizeParent=0;resizeLast=1;shadow=0;dashed=0;align=center;fillColor=#F5AB50;strokeColor=#909090;fontColor=#1A1A1A;" parent="1" vertex="1"><mxGeometry x="280" y="680" width="160" height="160" as="geometry"/></mxCell><mxCell id="ijWVoz1V8DGi0HDy-ZMH-13" value="+ id (PK)&#10;+ name&#10;+ country_id (FK)&#10;+ created_date&#10;+ created_by&#10;+ modified_date&#10;+ moified_by" style="align=left;strokeColor=none;fillColor=none;spacingLeft=4;fontSize=12;verticalAlign=top;resizable=0;rotatable=0;part=1;fontColor=#1A1A1A;" parent="ijWVoz1V8DGi0HDy-ZMH-12" vertex="1"><mxGeometry y="30" width="160" height="130" as="geometry"/></mxCell><mxCell id="ijWVoz1V8DGi0HDy-ZMH-14" value="ward" style="swimlane;childLayout=stackLayout;horizontal=1;startSize=30;horizontalStack=0;rounded=1;fontSize=14;fontStyle=0;strokeWidth=2;resizeParent=0;resizeLast=1;shadow=0;dashed=0;align=center;fillColor=#F5AB50;strokeColor=#909090;fontColor=#1A1A1A;" parent="1" vertex="1"><mxGeometry x="680" y="840" width="160" height="160" as="geometry"/></mxCell><mxCell id="ijWVoz1V8DGi0HDy-ZMH-15" value="+ id (PK)&#10;+ name&#10;+ district_id (FK)&#10;+ created_date&#10;+ created_by&#10;+ modified_date&#10;+ modified_by" style="align=left;strokeColor=none;fillColor=none;spacingLeft=4;fontSize=12;verticalAlign=top;resizable=0;rotatable=0;part=1;fontColor=#1A1A1A;" parent="ijWVoz1V8DGi0HDy-ZMH-14" vertex="1"><mxGeometry y="30" width="160" height="130" as="geometry"/></mxCell><mxCell id="ijWVoz1V8DGi0HDy-ZMH-16" value="Location" style="swimlane;childLayout=stackLayout;horizontal=1;startSize=30;horizontalStack=0;rounded=1;fontSize=14;fontStyle=0;strokeWidth=2;resizeParent=0;resizeLast=1;shadow=0;dashed=0;align=center;fillColor=#F5AB50;strokeColor=#909090;fontColor=#1A1A1A;" parent="1" vertex="1"><mxGeometry x="880" y="920" width="160" height="160" as="geometry"/></mxCell><mxCell id="ijWVoz1V8DGi0HDy-ZMH-17" value="+ id (PK)&#10;+ name&#10;+ ward_id (FK)&#10;+ created_date&#10;+ created_by&#10;+ modified_date&#10;+ modified_by" style="align=left;strokeColor=none;fillColor=none;spacingLeft=4;fontSize=12;verticalAlign=top;resizable=0;rotatable=0;part=1;fontColor=#1A1A1A;" parent="ijWVoz1V8DGi0HDy-ZMH-16" vertex="1"><mxGeometry y="30" width="160" height="130" as="geometry"/></mxCell><mxCell id="nJ0_UqHyAE1VyKCotSEz-19" style="edgeStyle=orthogonalEdgeStyle;rounded=0;orthogonalLoop=1;jettySize=auto;html=1;labelBackgroundColor=#EEEEEE;strokeColor=#182E3E;fontColor=#1A1A1A;" parent="1" source="ijWVoz1V8DGi0HDy-ZMH-19" target="ijWVoz1V8DGi0HDy-ZMH-2" edge="1"><mxGeometry relative="1" as="geometry"><Array as="points"><mxPoint x="590" y="440"/><mxPoint x="590" y="300"/></Array></mxGeometry></mxCell><mxCell id="ijWVoz1V8DGi0HDy-ZMH-19" value="cart" style="swimlane;childLayout=stackLayout;horizontal=1;startSize=30;horizontalStack=0;rounded=1;fontSize=14;fontStyle=0;strokeWidth=2;resizeParent=0;resizeLast=1;shadow=0;dashed=0;align=center;fillColor=#F5AB50;strokeColor=#909090;fontColor=#1A1A1A;" parent="1" vertex="1"><mxGeometry x="270" y="380" width="160" height="160" as="geometry"/></mxCell><mxCell id="ijWVoz1V8DGi0HDy-ZMH-20" value="+ id (PK)&#10;+ user_id (FK)&#10;+ shop_id (FK)&#10;+ created_date&#10;+ created_by&#10;+ modified_date&#10;+ moified_by" style="align=left;strokeColor=none;fillColor=none;spacingLeft=4;fontSize=12;verticalAlign=top;resizable=0;rotatable=0;part=1;fontColor=#1A1A1A;" parent="ijWVoz1V8DGi0HDy-ZMH-19" vertex="1"><mxGeometry y="30" width="160" height="130" as="geometry"/></mxCell><mxCell id="nJ0_UqHyAE1VyKCotSEz-15" style="edgeStyle=orthogonalEdgeStyle;rounded=0;orthogonalLoop=1;jettySize=auto;html=1;entryX=0.75;entryY=1;entryDx=0;entryDy=0;labelBackgroundColor=#EEEEEE;strokeColor=#182E3E;fontColor=#1A1A1A;" parent="1" source="ijWVoz1V8DGi0HDy-ZMH-21" target="nJ0_UqHyAE1VyKCotSEz-10" edge="1"><mxGeometry relative="1" as="geometry"><Array as="points"><mxPoint x="1930" y="730"/></Array></mxGeometry></mxCell><mxCell id="ijWVoz1V8DGi0HDy-ZMH-21" value="evaluation_food" style="swimlane;childLayout=stackLayout;horizontal=1;startSize=30;horizontalStack=0;rounded=1;fontSize=14;fontStyle=0;strokeWidth=2;resizeParent=0;resizeLast=1;shadow=0;dashed=0;align=center;fillColor=#F5AB50;strokeColor=#909090;fontColor=#1A1A1A;" parent="1" vertex="1"><mxGeometry x="1370" y="650" width="160" height="190" as="geometry"/></mxCell><mxCell id="ijWVoz1V8DGi0HDy-ZMH-22" value="+ id (PK)&#10;+ level_star&#10;+ comment&#10;+ user_id (FK)&#10;+ food_id (FK)&#10;+ created_date&#10;+ created_by&#10;+ modified_date&#10;+ modified_by" style="align=left;strokeColor=none;fillColor=none;spacingLeft=4;fontSize=12;verticalAlign=top;resizable=0;rotatable=0;part=1;fontColor=#1A1A1A;" parent="ijWVoz1V8DGi0HDy-ZMH-21" vertex="1"><mxGeometry y="30" width="160" height="160" as="geometry"/></mxCell><mxCell id="ijWVoz1V8DGi0HDy-ZMH-23" value="voucher" style="swimlane;childLayout=stackLayout;horizontal=1;startSize=30;horizontalStack=0;rounded=1;fontSize=14;fontStyle=0;strokeWidth=2;resizeParent=0;resizeLast=1;shadow=0;dashed=0;align=center;fillColor=#F5AB50;strokeColor=#909090;fontColor=#1A1A1A;" parent="1" vertex="1"><mxGeometry x="1150" y="1020" width="160" height="250" as="geometry"/></mxCell><mxCell id="ijWVoz1V8DGi0HDy-ZMH-24" value="+ id (PK)&#10;+ name&#10;+ description&#10;+ quantity_current&#10;+ money&#10;+ start_date&#10;+ end_date&#10;+ shope_id (FK)&#10;+ food_id (FK)&#10;+ created_date&#10;+ created_by&#10;+ modified_date&#10;+ modified_by" style="align=left;strokeColor=none;fillColor=none;spacingLeft=4;fontSize=12;verticalAlign=top;resizable=0;rotatable=0;part=1;fontColor=#1A1A1A;" parent="ijWVoz1V8DGi0HDy-ZMH-23" vertex="1"><mxGeometry y="30" width="160" height="220" as="geometry"/></mxCell><mxCell id="ijWVoz1V8DGi0HDy-ZMH-25" value="bill" style="swimlane;childLayout=stackLayout;horizontal=1;startSize=30;horizontalStack=0;rounded=1;fontSize=14;fontStyle=0;strokeWidth=2;resizeParent=0;resizeLast=1;shadow=0;dashed=0;align=center;fillColor=#F5AB50;strokeColor=#909090;fontColor=#1A1A1A;" parent="1" vertex="1"><mxGeometry x="960" y="10" width="160" height="200" as="geometry"/></mxCell><mxCell id="ijWVoz1V8DGi0HDy-ZMH-26" value="+ id (PK)&#10;+ total_money&#10;+ user_id (FK)&#10;+ shop_id (FK)&#10;+ location_id (FK)&#10;+ transport_money_id (FK)&#10;+ created_date&#10;+ created_by&#10;+ modified_date&#10;+ modiified_by" style="align=left;strokeColor=none;fillColor=none;spacingLeft=4;fontSize=12;verticalAlign=top;resizable=0;rotatable=0;part=1;fontColor=#1A1A1A;" parent="ijWVoz1V8DGi0HDy-ZMH-25" vertex="1"><mxGeometry y="30" width="160" height="170" as="geometry"/></mxCell><mxCell id="ijWVoz1V8DGi0HDy-ZMH-27" value="bill_detail" style="swimlane;childLayout=stackLayout;horizontal=1;startSize=30;horizontalStack=0;rounded=1;fontSize=14;fontStyle=0;strokeWidth=2;resizeParent=0;resizeLast=1;shadow=0;dashed=0;align=center;fillColor=#F5AB50;strokeColor=#909090;fontColor=#1A1A1A;" parent="1" vertex="1"><mxGeometry x="1210" y="130" width="160" height="180" as="geometry"/></mxCell><mxCell id="ijWVoz1V8DGi0HDy-ZMH-28" value="+ food_id (PK - FK)&#10;+ bill_id (PK - FK)&#10;+ quantity&#10;+ money&#10;+ voucher_id&#10;+ created_date&#10;+ created_by&#10;+ modified_date&#10;+ modiified_by" style="align=left;strokeColor=none;fillColor=none;spacingLeft=4;fontSize=12;verticalAlign=top;resizable=0;rotatable=0;part=1;fontColor=#1A1A1A;" parent="ijWVoz1V8DGi0HDy-ZMH-27" vertex="1"><mxGeometry y="30" width="160" height="150" as="geometry"/></mxCell><mxCell id="i-i60iLG56CUSzepgEwN-4" style="edgeStyle=orthogonalEdgeStyle;rounded=0;orthogonalLoop=1;jettySize=auto;html=1;entryX=1;entryY=0.5;entryDx=0;entryDy=0;labelBackgroundColor=#EEEEEE;strokeColor=#182E3E;fontColor=#1A1A1A;" parent="1" source="i-i60iLG56CUSzepgEwN-1" target="ijWVoz1V8DGi0HDy-ZMH-13" edge="1"><mxGeometry relative="1" as="geometry"/></mxCell><mxCell id="i-i60iLG56CUSzepgEwN-1" value="district" style="swimlane;childLayout=stackLayout;horizontal=1;startSize=30;horizontalStack=0;rounded=1;fontSize=14;fontStyle=0;strokeWidth=2;resizeParent=0;resizeLast=1;shadow=0;dashed=0;align=center;fillColor=#F5AB50;strokeColor=#909090;fontColor=#1A1A1A;" parent="1" vertex="1"><mxGeometry x="480" y="760" width="160" height="160" as="geometry"/></mxCell><mxCell id="i-i60iLG56CUSzepgEwN-2" value="+ id (PK)&#10;+ name&#10;+ province_id (FK)&#10;+ created_date&#10;+ created_by&#10;+ modified_date&#10;+ modified_by" style="align=left;strokeColor=none;fillColor=none;spacingLeft=4;fontSize=12;verticalAlign=top;resizable=0;rotatable=0;part=1;fontColor=#1A1A1A;" parent="i-i60iLG56CUSzepgEwN-1" vertex="1"><mxGeometry y="30" width="160" height="130" as="geometry"/></mxCell><mxCell id="i-i60iLG56CUSzepgEwN-3" style="edgeStyle=orthogonalEdgeStyle;rounded=0;orthogonalLoop=1;jettySize=auto;html=1;entryX=1;entryY=0.5;entryDx=0;entryDy=0;labelBackgroundColor=#EEEEEE;strokeColor=#182E3E;fontColor=#1A1A1A;" parent="1" source="ijWVoz1V8DGi0HDy-ZMH-13" target="ijWVoz1V8DGi0HDy-ZMH-11" edge="1"><mxGeometry relative="1" as="geometry"/></mxCell><mxCell id="i-i60iLG56CUSzepgEwN-5" style="edgeStyle=orthogonalEdgeStyle;rounded=0;orthogonalLoop=1;jettySize=auto;html=1;entryX=1;entryY=0.5;entryDx=0;entryDy=0;labelBackgroundColor=#EEEEEE;strokeColor=#182E3E;fontColor=#1A1A1A;" parent="1" source="ijWVoz1V8DGi0HDy-ZMH-15" target="i-i60iLG56CUSzepgEwN-2" edge="1"><mxGeometry relative="1" as="geometry"><Array as="points"><mxPoint x="660" y="930"/><mxPoint x="660" y="855"/></Array></mxGeometry></mxCell><mxCell id="i-i60iLG56CUSzepgEwN-6" style="edgeStyle=orthogonalEdgeStyle;rounded=0;orthogonalLoop=1;jettySize=auto;html=1;entryX=1;entryY=0.5;entryDx=0;entryDy=0;labelBackgroundColor=#EEEEEE;strokeColor=#182E3E;fontColor=#1A1A1A;" parent="1" source="ijWVoz1V8DGi0HDy-ZMH-17" target="ijWVoz1V8DGi0HDy-ZMH-15" edge="1"><mxGeometry relative="1" as="geometry"/></mxCell><mxCell id="i-i60iLG56CUSzepgEwN-8" value="role" style="swimlane;childLayout=stackLayout;horizontal=1;startSize=30;horizontalStack=0;rounded=1;fontSize=14;fontStyle=0;strokeWidth=2;resizeParent=0;resizeLast=1;shadow=0;dashed=0;align=center;fillColor=#F5AB50;strokeColor=#909090;fontColor=#1A1A1A;gradientColor=none;swimlaneFillColor=none;glass=0;" parent="1" vertex="1"><mxGeometry x="490" y="40" width="160" height="180" as="geometry"/></mxCell><mxCell id="i-i60iLG56CUSzepgEwN-9" value="+ id (PK)&#10;+ name&#10;+ description&#10;+ created_date&#10;+ created_by&#10;+ modified_date&#10;+ modified_by" style="align=left;strokeColor=none;fillColor=none;spacingLeft=4;fontSize=12;verticalAlign=top;resizable=0;rotatable=0;part=1;fontColor=#1A1A1A;" parent="i-i60iLG56CUSzepgEwN-8" vertex="1"><mxGeometry y="30" width="160" height="150" as="geometry"/></mxCell><mxCell id="i-i60iLG56CUSzepgEwN-11" value="cart_detail" style="swimlane;childLayout=stackLayout;horizontal=1;startSize=30;horizontalStack=0;rounded=1;fontSize=14;fontStyle=0;strokeWidth=2;resizeParent=0;resizeLast=1;shadow=0;dashed=0;align=center;fillColor=#F5AB50;strokeColor=#909090;fontColor=#1A1A1A;" parent="1" vertex="1"><mxGeometry x="550" y="505" width="160" height="185" as="geometry"/></mxCell><mxCell id="i-i60iLG56CUSzepgEwN-12" value="+ cart_id (PK)&#10;+ food_id (FK)&#10;+ quantity&#10;+ created_date&#10;+ created_by&#10;+ modified_date&#10;+ modified_by" style="align=left;strokeColor=none;fillColor=none;spacingLeft=4;fontSize=12;verticalAlign=top;resizable=0;rotatable=0;part=1;fontColor=#1A1A1A;" parent="i-i60iLG56CUSzepgEwN-11" vertex="1"><mxGeometry y="30" width="160" height="155" as="geometry"/></mxCell><mxCell id="nJ0_UqHyAE1VyKCotSEz-1" style="edgeStyle=orthogonalEdgeStyle;rounded=0;orthogonalLoop=1;jettySize=auto;html=1;labelBackgroundColor=#EEEEEE;strokeColor=#182E3E;fontColor=#1A1A1A;" parent="1" source="ijWVoz1V8DGi0HDy-ZMH-28" target="ijWVoz1V8DGi0HDy-ZMH-26" edge="1"><mxGeometry relative="1" as="geometry"/></mxCell><mxCell id="nJ0_UqHyAE1VyKCotSEz-2" style="edgeStyle=orthogonalEdgeStyle;rounded=0;orthogonalLoop=1;jettySize=auto;html=1;entryX=1;entryY=0.5;entryDx=0;entryDy=0;labelBackgroundColor=#EEEEEE;strokeColor=#182E3E;fontColor=#1A1A1A;" parent="1" source="i-i60iLG56CUSzepgEwN-12" target="ijWVoz1V8DGi0HDy-ZMH-20" edge="1"><mxGeometry relative="1" as="geometry"/></mxCell><mxCell id="nJ0_UqHyAE1VyKCotSEz-3" style="edgeStyle=orthogonalEdgeStyle;rounded=0;orthogonalLoop=1;jettySize=auto;html=1;labelBackgroundColor=#EEEEEE;strokeColor=#182E3E;fontColor=#1A1A1A;" parent="1" source="ijWVoz1V8DGi0HDy-ZMH-2" target="ijWVoz1V8DGi0HDy-ZMH-16" edge="1"><mxGeometry relative="1" as="geometry"/></mxCell><mxCell id="nJ0_UqHyAE1VyKCotSEz-5" style="edgeStyle=orthogonalEdgeStyle;rounded=0;orthogonalLoop=1;jettySize=auto;html=1;entryX=1;entryY=0.25;entryDx=0;entryDy=0;labelBackgroundColor=#EEEEEE;strokeColor=#182E3E;fontColor=#1A1A1A;" parent="1" source="ijWVoz1V8DGi0HDy-ZMH-26" target="ijWVoz1V8DGi0HDy-ZMH-2" edge="1"><mxGeometry relative="1" as="geometry"/></mxCell><mxCell id="nJ0_UqHyAE1VyKCotSEz-6" style="edgeStyle=orthogonalEdgeStyle;rounded=0;orthogonalLoop=1;jettySize=auto;html=1;entryX=0.431;entryY=-0.006;entryDx=0;entryDy=0;entryPerimeter=0;labelBackgroundColor=#EEEEEE;strokeColor=#182E3E;fontColor=#1A1A1A;" parent="1" source="ijWVoz1V8DGi0HDy-ZMH-26" target="ijWVoz1V8DGi0HDy-ZMH-7" edge="1"><mxGeometry relative="1" as="geometry"><Array as="points"><mxPoint x="1039" y="240"/><mxPoint x="1039" y="240"/></Array></mxGeometry></mxCell><mxCell id="nJ0_UqHyAE1VyKCotSEz-7" value="category" style="swimlane;childLayout=stackLayout;horizontal=1;startSize=30;horizontalStack=0;rounded=1;fontSize=14;fontStyle=0;strokeWidth=2;resizeParent=0;resizeLast=1;shadow=0;dashed=0;align=center;fillColor=#F5AB50;strokeColor=#909090;fontColor=#1A1A1A;" parent="1" vertex="1"><mxGeometry x="1470" y="20" width="160" height="160" as="geometry"/></mxCell><mxCell id="nJ0_UqHyAE1VyKCotSEz-8" value="+ id (PK)&#10;+ name&#10;+ created_date&#10;+ created_by&#10;+ modified_date&#10;+ modified_by" style="align=left;strokeColor=none;fillColor=none;spacingLeft=4;fontSize=12;verticalAlign=top;resizable=0;rotatable=0;part=1;fontColor=#1A1A1A;" parent="nJ0_UqHyAE1VyKCotSEz-7" vertex="1"><mxGeometry y="30" width="160" height="130" as="geometry"/></mxCell><mxCell id="nJ0_UqHyAE1VyKCotSEz-9" value="food" style="swimlane;childLayout=stackLayout;horizontal=1;startSize=30;horizontalStack=0;rounded=1;fontSize=14;fontStyle=0;strokeWidth=2;resizeParent=0;resizeLast=1;shadow=0;dashed=0;align=center;fillColor=#F5AB50;strokeColor=#909090;fontColor=#1A1A1A;" parent="1" vertex="1"><mxGeometry x="1810" y="150" width="160" height="210" as="geometry"/></mxCell><mxCell id="nJ0_UqHyAE1VyKCotSEz-10" value="+ id (PK)&#10;+ name&#10;+ description&#10;+ price&#10;+ image&#10;+ category_id (FK)&#10;+ created_date&#10;+ created_by&#10;+ modified_date&#10;+ modified_by" style="align=left;strokeColor=none;fillColor=none;spacingLeft=4;fontSize=12;verticalAlign=top;resizable=0;rotatable=0;part=1;fontColor=#1A1A1A;" parent="nJ0_UqHyAE1VyKCotSEz-9" vertex="1"><mxGeometry y="30" width="160" height="180" as="geometry"/></mxCell><mxCell id="nJ0_UqHyAE1VyKCotSEz-11" style="edgeStyle=orthogonalEdgeStyle;rounded=0;orthogonalLoop=1;jettySize=auto;html=1;entryX=1;entryY=0.5;entryDx=0;entryDy=0;labelBackgroundColor=#EEEEEE;strokeColor=#182E3E;fontColor=#1A1A1A;" parent="1" source="nJ0_UqHyAE1VyKCotSEz-10" target="nJ0_UqHyAE1VyKCotSEz-8" edge="1"><mxGeometry relative="1" as="geometry"><Array as="points"><mxPoint x="1720" y="240"/><mxPoint x="1720" y="115"/></Array></mxGeometry></mxCell><mxCell id="nJ0_UqHyAE1VyKCotSEz-12" style="edgeStyle=orthogonalEdgeStyle;rounded=0;orthogonalLoop=1;jettySize=auto;html=1;labelBackgroundColor=#EEEEEE;strokeColor=#182E3E;fontColor=#1A1A1A;entryX=-0.012;entryY=0.9;entryDx=0;entryDy=0;entryPerimeter=0;" parent="1" source="ijWVoz1V8DGi0HDy-ZMH-28" target="nJ0_UqHyAE1VyKCotSEz-10" edge="1"><mxGeometry relative="1" as="geometry"><mxPoint x="1750" y="350" as="targetPoint"/><Array as="points"><mxPoint x="1690" y="300"/><mxPoint x="1690" y="342"/></Array></mxGeometry></mxCell><mxCell id="nJ0_UqHyAE1VyKCotSEz-16" style="edgeStyle=orthogonalEdgeStyle;rounded=0;orthogonalLoop=1;jettySize=auto;html=1;entryX=1;entryY=0.5;entryDx=0;entryDy=0;labelBackgroundColor=#EEEEEE;strokeColor=#182E3E;fontColor=#1A1A1A;" parent="1" source="nJ0_UqHyAE1VyKCotSEz-13" target="ijWVoz1V8DGi0HDy-ZMH-8" edge="1"><mxGeometry relative="1" as="geometry"/></mxCell><mxCell id="nJ0_UqHyAE1VyKCotSEz-13" value="evaluation_shop" style="swimlane;childLayout=stackLayout;horizontal=1;startSize=30;horizontalStack=0;rounded=1;fontSize=14;fontStyle=0;strokeWidth=2;resizeParent=0;resizeLast=1;shadow=0;dashed=0;align=center;fillColor=#F5AB50;strokeColor=#909090;fontColor=#1A1A1A;" parent="1" vertex="1"><mxGeometry x="1280" y="410" width="160" height="190" as="geometry"/></mxCell><mxCell id="nJ0_UqHyAE1VyKCotSEz-14" value="+ id (PK)&#10;+ level_star&#10;+ comment&#10;+ user_id (FK)&#10;+ shop_id (FK)&#10;+ created_date&#10;+ created_by&#10;+ modified_date&#10;+ modified_by" style="align=left;strokeColor=none;fillColor=none;spacingLeft=4;fontSize=12;verticalAlign=top;resizable=0;rotatable=0;part=1;fontColor=#1A1A1A;" parent="nJ0_UqHyAE1VyKCotSEz-13" vertex="1"><mxGeometry y="30" width="160" height="160" as="geometry"/></mxCell><mxCell id="nJ0_UqHyAE1VyKCotSEz-17" style="edgeStyle=orthogonalEdgeStyle;rounded=0;orthogonalLoop=1;jettySize=auto;html=1;entryX=0.75;entryY=1;entryDx=0;entryDy=0;labelBackgroundColor=#EEEEEE;strokeColor=#182E3E;fontColor=#1A1A1A;" parent="1" source="nJ0_UqHyAE1VyKCotSEz-14" target="ijWVoz1V8DGi0HDy-ZMH-2" edge="1"><mxGeometry relative="1" as="geometry"><Array as="points"><mxPoint x="1360" y="590"/><mxPoint x="840" y="590"/></Array></mxGeometry></mxCell><mxCell id="nJ0_UqHyAE1VyKCotSEz-18" style="edgeStyle=orthogonalEdgeStyle;rounded=0;orthogonalLoop=1;jettySize=auto;html=1;entryX=0.25;entryY=1;entryDx=0;entryDy=0;labelBackgroundColor=#EEEEEE;strokeColor=#182E3E;fontColor=#1A1A1A;" parent="1" source="ijWVoz1V8DGi0HDy-ZMH-22" target="ijWVoz1V8DGi0HDy-ZMH-2" edge="1"><mxGeometry relative="1" as="geometry"/></mxCell><mxCell id="nJ0_UqHyAE1VyKCotSEz-20" style="edgeStyle=orthogonalEdgeStyle;rounded=0;orthogonalLoop=1;jettySize=auto;html=1;entryX=0.25;entryY=1;entryDx=0;entryDy=0;labelBackgroundColor=#EEEEEE;strokeColor=#182E3E;fontColor=#1A1A1A;" parent="1" source="i-i60iLG56CUSzepgEwN-12" target="nJ0_UqHyAE1VyKCotSEz-10" edge="1"><mxGeometry relative="1" as="geometry"/></mxCell><mxCell id="nJ0_UqHyAE1VyKCotSEz-21" style="edgeStyle=orthogonalEdgeStyle;rounded=0;orthogonalLoop=1;jettySize=auto;html=1;entryX=0.75;entryY=0;entryDx=0;entryDy=0;labelBackgroundColor=#EEEEEE;strokeColor=#182E3E;fontColor=#1A1A1A;" parent="1" source="ijWVoz1V8DGi0HDy-ZMH-8" target="ijWVoz1V8DGi0HDy-ZMH-16" edge="1"><mxGeometry relative="1" as="geometry"><Array as="points"><mxPoint x="1040" y="695"/><mxPoint x="1000" y="695"/></Array></mxGeometry></mxCell><mxCell id="nJ0_UqHyAE1VyKCotSEz-24" style="edgeStyle=orthogonalEdgeStyle;rounded=0;orthogonalLoop=1;jettySize=auto;html=1;entryX=0.5;entryY=1;entryDx=0;entryDy=0;labelBackgroundColor=#EEEEEE;strokeColor=#182E3E;fontColor=#1A1A1A;" parent="1" source="nJ0_UqHyAE1VyKCotSEz-22" target="nJ0_UqHyAE1VyKCotSEz-10" edge="1"><mxGeometry relative="1" as="geometry"><Array as="points"><mxPoint x="1890" y="970"/></Array></mxGeometry></mxCell><mxCell id="nJ0_UqHyAE1VyKCotSEz-22" value="shop_food" style="swimlane;childLayout=stackLayout;horizontal=1;startSize=30;horizontalStack=0;rounded=1;fontSize=14;fontStyle=0;strokeWidth=2;resizeParent=0;resizeLast=1;shadow=0;dashed=0;align=center;fillColor=#F5AB50;strokeColor=#909090;fontColor=#1A1A1A;" parent="1" vertex="1"><mxGeometry x="1460" y="890" width="160" height="160" as="geometry"/></mxCell><mxCell id="nJ0_UqHyAE1VyKCotSEz-23" value="+ shop_id (PK - FK)&#10;+ food_id (PK - FK)&#10;+ quantity&#10;+ created_date&#10;+ created_by&#10;+ modified_date&#10;+ modified_by" style="align=left;strokeColor=none;fillColor=none;spacingLeft=4;fontSize=12;verticalAlign=top;resizable=0;rotatable=0;part=1;fontColor=#1A1A1A;" parent="nJ0_UqHyAE1VyKCotSEz-22" vertex="1"><mxGeometry y="30" width="160" height="130" as="geometry"/></mxCell><mxCell id="nJ0_UqHyAE1VyKCotSEz-25" style="edgeStyle=orthogonalEdgeStyle;rounded=0;orthogonalLoop=1;jettySize=auto;html=1;labelBackgroundColor=#EEEEEE;strokeColor=#182E3E;fontColor=#1A1A1A;" parent="1" source="nJ0_UqHyAE1VyKCotSEz-23" target="ijWVoz1V8DGi0HDy-ZMH-8" edge="1"><mxGeometry relative="1" as="geometry"/></mxCell><mxCell id="nJ0_UqHyAE1VyKCotSEz-26" value="shop_staff" style="swimlane;childLayout=stackLayout;horizontal=1;startSize=30;horizontalStack=0;rounded=1;fontSize=14;fontStyle=0;strokeWidth=2;resizeParent=0;resizeLast=1;shadow=0;dashed=0;align=center;fillColor=#F5AB50;strokeColor=#909090;fontColor=#1A1A1A;" parent="1" vertex="1"><mxGeometry x="1180" y="780" width="160" height="160" as="geometry"/></mxCell><mxCell id="nJ0_UqHyAE1VyKCotSEz-27" value="+ shop_id (PK - FK)&#10;+ user_id (PK - FK)&#10;+ created_date&#10;+ created_by&#10;+ modified_date&#10;+ modified_by" style="align=left;strokeColor=none;fillColor=none;spacingLeft=4;fontSize=12;verticalAlign=top;resizable=0;rotatable=0;part=1;fontColor=#1A1A1A;" parent="nJ0_UqHyAE1VyKCotSEz-26" vertex="1"><mxGeometry y="30" width="160" height="130" as="geometry"/></mxCell><mxCell id="nJ0_UqHyAE1VyKCotSEz-28" style="edgeStyle=orthogonalEdgeStyle;rounded=0;orthogonalLoop=1;jettySize=auto;html=1;entryX=0.671;entryY=1.003;entryDx=0;entryDy=0;entryPerimeter=0;labelBackgroundColor=#EEEEEE;strokeColor=#182E3E;fontColor=#1A1A1A;" parent="1" source="nJ0_UqHyAE1VyKCotSEz-27" target="ijWVoz1V8DGi0HDy-ZMH-8" edge="1"><mxGeometry relative="1" as="geometry"><mxPoint x="1080" y="480" as="targetPoint"/><Array as="points"><mxPoint x="1077" y="865"/></Array></mxGeometry></mxCell><mxCell id="nJ0_UqHyAE1VyKCotSEz-29" style="edgeStyle=orthogonalEdgeStyle;rounded=0;orthogonalLoop=1;jettySize=auto;html=1;entryX=0.342;entryY=1.004;entryDx=0;entryDy=0;entryPerimeter=0;labelBackgroundColor=#EEEEEE;strokeColor=#182E3E;fontColor=#1A1A1A;" parent="1" source="nJ0_UqHyAE1VyKCotSEz-27" target="ijWVoz1V8DGi0HDy-ZMH-2" edge="1"><mxGeometry relative="1" as="geometry"><Array as="points"><mxPoint x="1150" y="850"/><mxPoint x="1150" y="640"/><mxPoint x="775" y="640"/></Array></mxGeometry></mxCell><mxCell id="nJ0_UqHyAE1VyKCotSEz-33" style="edgeStyle=orthogonalEdgeStyle;rounded=0;orthogonalLoop=1;jettySize=auto;html=1;labelBackgroundColor=#EEEEEE;strokeColor=#182E3E;fontColor=#1A1A1A;" parent="1" source="ijWVoz1V8DGi0HDy-ZMH-24" target="ijWVoz1V8DGi0HDy-ZMH-8" edge="1"><mxGeometry relative="1" as="geometry"><Array as="points"><mxPoint x="1060" y="1155"/></Array></mxGeometry></mxCell><mxCell id="nJ0_UqHyAE1VyKCotSEz-38" style="edgeStyle=orthogonalEdgeStyle;rounded=0;orthogonalLoop=1;jettySize=auto;html=1;labelBackgroundColor=#EEEEEE;strokeColor=#182E3E;fontColor=#1A1A1A;" parent="1" source="nJ0_UqHyAE1VyKCotSEz-35" target="ijWVoz1V8DGi0HDy-ZMH-2" edge="1"><mxGeometry relative="1" as="geometry"><mxPoint x="780" y="390" as="targetPoint"/><Array as="points"><mxPoint x="470" y="1130"/><mxPoint x="470" y="715"/><mxPoint x="810" y="715"/></Array></mxGeometry></mxCell><mxCell id="nJ0_UqHyAE1VyKCotSEz-35" value="voucher_user" style="swimlane;childLayout=stackLayout;horizontal=1;startSize=30;horizontalStack=0;rounded=1;fontSize=14;fontStyle=0;strokeWidth=2;resizeParent=0;resizeLast=1;shadow=0;dashed=0;align=center;fillColor=#F5AB50;strokeColor=#909090;fontColor=#1A1A1A;" parent="1" vertex="1"><mxGeometry x="630" y="1050" width="160" height="160" as="geometry"/></mxCell><mxCell id="nJ0_UqHyAE1VyKCotSEz-36" value="+ user_id (PK - FK)&#10;+ voucher_id (PK - FK)&#10;+ created_date&#10;+ created_by&#10;+ modified_date&#10;+ modified_by" style="align=left;strokeColor=none;fillColor=none;spacingLeft=4;fontSize=12;verticalAlign=top;resizable=0;rotatable=0;part=1;fontColor=#1A1A1A;" parent="nJ0_UqHyAE1VyKCotSEz-35" vertex="1"><mxGeometry y="30" width="160" height="130" as="geometry"/></mxCell><mxCell id="nJ0_UqHyAE1VyKCotSEz-40" style="edgeStyle=orthogonalEdgeStyle;rounded=0;orthogonalLoop=1;jettySize=auto;html=1;entryX=0;entryY=0.714;entryDx=0;entryDy=0;entryPerimeter=0;labelBackgroundColor=#EEEEEE;strokeColor=#182E3E;fontColor=#1A1A1A;" parent="1" source="nJ0_UqHyAE1VyKCotSEz-36" target="ijWVoz1V8DGi0HDy-ZMH-24" edge="1"><mxGeometry relative="1" as="geometry"/></mxCell><mxCell id="nJ0_UqHyAE1VyKCotSEz-41" style="edgeStyle=orthogonalEdgeStyle;rounded=0;orthogonalLoop=1;jettySize=auto;html=1;labelBackgroundColor=#EEEEEE;strokeColor=#182E3E;fontColor=#1A1A1A;entryX=0.131;entryY=1;entryDx=0;entryDy=0;entryPerimeter=0;" parent="1" source="ijWVoz1V8DGi0HDy-ZMH-24" target="nJ0_UqHyAE1VyKCotSEz-10" edge="1"><mxGeometry relative="1" as="geometry"><mxPoint x="1759" y="300" as="targetPoint"/></mxGeometry></mxCell><mxCell id="nJ0_UqHyAE1VyKCotSEz-46" style="edgeStyle=orthogonalEdgeStyle;rounded=0;orthogonalLoop=1;jettySize=auto;html=1;entryX=0.15;entryY=0.992;entryDx=0;entryDy=0;entryPerimeter=0;labelBackgroundColor=#EEEEEE;strokeColor=#182E3E;fontColor=#1A1A1A;" parent="1" source="i-i60iLG56CUSzepgEwN-12" target="ijWVoz1V8DGi0HDy-ZMH-8" edge="1"><mxGeometry relative="1" as="geometry"><mxPoint x="1000" y="480" as="targetPoint"/><Array as="points"><mxPoint x="994" y="580"/></Array></mxGeometry></mxCell><mxCell id="nJ0_UqHyAE1VyKCotSEz-47" style="edgeStyle=orthogonalEdgeStyle;rounded=0;orthogonalLoop=1;jettySize=auto;html=1;entryX=1;entryY=0.5;entryDx=0;entryDy=0;labelBackgroundColor=#EEEEEE;strokeColor=#182E3E;fontColor=#1A1A1A;" parent="1" source="ijWVoz1V8DGi0HDy-ZMH-8" target="ijWVoz1V8DGi0HDy-ZMH-1" edge="1"><mxGeometry relative="1" as="geometry"/></mxCell><mxCell id="nJ0_UqHyAE1VyKCotSEz-49" value="transport_money" style="swimlane;childLayout=stackLayout;horizontal=1;startSize=30;horizontalStack=0;rounded=1;fontSize=14;fontStyle=0;strokeWidth=2;resizeParent=0;resizeLast=1;shadow=0;dashed=0;align=center;fillColor=#F5AB50;strokeColor=#909090;fontColor=#1A1A1A;" parent="1" vertex="1"><mxGeometry x="1540" y="360" width="160" height="160" as="geometry"/></mxCell><mxCell id="nJ0_UqHyAE1VyKCotSEz-50" value="+ id (PK)&#10;+ distance&#10;+ money&#10;+ created_date&#10;+ created_by&#10;+ modified_date&#10;+ moified_by" style="align=left;strokeColor=none;fillColor=none;spacingLeft=4;fontSize=12;verticalAlign=top;resizable=0;rotatable=0;part=1;fontColor=#1A1A1A;" parent="nJ0_UqHyAE1VyKCotSEz-49" vertex="1"><mxGeometry y="30" width="160" height="130" as="geometry"/></mxCell><mxCell id="3X15Ono_yEpnh0UmY1yU-1" style="edgeStyle=orthogonalEdgeStyle;rounded=0;orthogonalLoop=1;jettySize=auto;html=1;entryX=0.5;entryY=1;entryDx=0;entryDy=0;" parent="1" source="ijWVoz1V8DGi0HDy-ZMH-26" target="nJ0_UqHyAE1VyKCotSEz-50" edge="1"><mxGeometry relative="1" as="geometry"><mxPoint x="1660" y="580" as="targetPoint"/><Array as="points"><mxPoint x="1180" y="160"/><mxPoint x="1180" y="630"/><mxPoint x="1620" y="630"/></Array></mxGeometry></mxCell><mxCell id="v7q4Q4Fbx6EEHtph2GWY-2" style="edgeStyle=orthogonalEdgeStyle;rounded=0;orthogonalLoop=1;jettySize=auto;html=1;entryX=0;entryY=0.25;entryDx=0;entryDy=0;" parent="1" source="ijWVoz1V8DGi0HDy-ZMH-28" target="ijWVoz1V8DGi0HDy-ZMH-24" edge="1"><mxGeometry relative="1" as="geometry"><Array as="points"><mxPoint x="1260" y="680"/><mxPoint x="1130" y="680"/><mxPoint x="1130" y="1105"/></Array></mxGeometry></mxCell><mxCell id="2" value="menu" style="swimlane;childLayout=stackLayout;horizontal=1;startSize=30;horizontalStack=0;rounded=1;fontSize=14;fontStyle=0;strokeWidth=2;resizeParent=0;resizeLast=1;shadow=0;dashed=0;align=center;fillColor=#F5AB50;strokeColor=#909090;fontColor=#1A1A1A;" parent="1" vertex="1"><mxGeometry x="2100" y="70" width="160" height="160" as="geometry"/></mxCell><mxCell id="3" value="+ id (PK)&#10;+ name&#10;+ created_date&#10;+ created_by&#10;+ modified_date&#10;+ modified_by" style="align=left;strokeColor=none;fillColor=none;spacingLeft=4;fontSize=12;verticalAlign=top;resizable=0;rotatable=0;part=1;fontColor=#1A1A1A;" parent="2" vertex="1"><mxGeometry y="30" width="160" height="130" as="geometry"/></mxCell><mxCell id="Zvms1XJI-HmjwW5YSphI-3" style="edgeStyle=orthogonalEdgeStyle;rounded=0;orthogonalLoop=1;jettySize=auto;html=1;entryX=0.006;entryY=0.708;entryDx=0;entryDy=0;entryPerimeter=0;strokeColor=#080808;" parent="1" source="nJ0_UqHyAE1VyKCotSEz-10" target="3" edge="1"><mxGeometry relative="1" as="geometry"/></mxCell></root></mxGraphModel></diagram></mxfile>